<?xml version="1.0" encoding="utf-8"?>
<!-- Generator: Adobe Illustrator 16.2.0, SVG Export Plug-In . SVG Version: 6.00 Build 0)  -->
<!DOCTYPE svg PUBLIC "-//W3C//DTD SVG 1.1//EN" "http://www.w3.org/Graphics/SVG/1.1/DTD/svg11.dtd">
<svg version="1.1" id="Ebene_1" xmlns="http://www.w3.org/2000/svg" xmlns:xlink="http://www.w3.org/1999/xlink" x="0px" y="0px"
	 viewBox="0 0 108.697 106.617" enable-background="new 0 0 108.697 106.617"
	 xml:space="preserve">
<g>
	<rect x="13.125" y="92.83" fill="#FFFFFF" width="82.217" height="13.787"/>
	<path fill="#FFFFFF" d="M108.697,21.533c0-6.222-5.045-11.267-11.266-11.267c-6.224,0-11.267,5.045-11.267,11.267
		c0,4.291,2.399,8.02,5.928,9.922l-15.27,20.841l-19.92-30.065c4.989-1.159,8.711-5.623,8.711-10.964C65.614,5.045,60.57,0,54.348,0
		c-6.223,0-11.266,5.045-11.266,11.267c0,5.289,3.65,9.715,8.565,10.927L31.781,52.297L16.547,31.482
		c3.56-1.894,5.984-5.637,5.984-9.949c0-6.222-5.044-11.267-11.266-11.267C5.043,10.266,0,15.312,0,21.533
		c0,5.787,4.366,10.551,9.982,11.188l3.283,51.233h82.166l3.277-51.232C104.328,32.086,108.697,27.322,108.697,21.533z"/>
</g>
</svg>
