<?xml version="1.0" encoding="UTF-8" standalone="no"?>
<svg width="19px" height="16px" viewBox="0 0 19 16" version="1.1" xmlns="http://www.w3.org/2000/svg" xmlns:xlink="http://www.w3.org/1999/xlink" xmlns:sketch="http://www.bohemiancoding.com/sketch/ns">
    <title>Slice 1</title>
    <description>Created with Sketch (http://www.bohemiancoding.com/sketch)</description>
    <defs></defs>
    <g id="Page 1" fill="rgb(206,206,206)" fill-rule="evenodd">
        <g id="Layer_1" fill="rgb(0,0,0)">
            <path d="M19,4.46511628 C19,3.43758144 18.14918,2.60465116 17.1,2.60465116 C16.05063,2.60465116 15.2,3.43758144 15.2,4.46511628 C15.2,4.92130231 15.36815,5.33860468 15.6465,5.66213954 L13.6801899,7.81395349 L12.7174599,3.63925597 C13.4945604,3.40595334 14.06,2.69804648 14.06,1.86046512 C14.06,0.832930277 13.20918,0 12.16,0 C11.11063,0 10.26,0.832930277 10.26,1.86046512 C10.26,2.52688372 10.61891,3.10958144 11.15642,3.43813945 L9.5,7.62772103 L7.84377,3.4381398 C8.38109001,3.10939523 8.74,2.52669774 8.74,1.86046512 C8.74,0.832930277 7.88917997,0 6.84,0 C5.79063004,0 4.94,0.832930277 4.94,1.86046512 C4.94,2.69804648 5.50544001,3.40613946 6.28254,3.63925579 L5.32,7.81395349 L3.35349993,5.66195359 C3.63184996,5.33841865 3.8,4.92130226 3.8,4.46511628 C3.8,3.43758144 2.94917997,2.60465116 1.9,2.60465116 C0.850630045,2.60465116 0,3.43758126 0,4.46511628 C0,5.46530231 0.806359992,6.2786977 1.81716002,6.32148831 L3.9901899,12.2790698 L15.01,12.2790698 L17.1832199,6.32148849 C18.1936394,6.27869788 19,5.46530222 19,4.46511628 L19,4.46511628 Z M19,4.46511628" id="Shape" fill="rgb(254,255,254)"></path>
            <path d="M3.9901899,13.3953488 L3.9901899,16 L15.01,16 L15.01,13.3953488 L3.9901899,13.3953488 Z M3.9901899,13.3953488" id="Rectangle" fill="rgb(254,255,254)"></path>
        </g>
    </g>
</svg>