<?xml version="1.0" encoding="UTF-8" standalone="no"?>
<svg width="35px" height="58px" viewBox="0 0 35 58" version="1.1" xmlns="http://www.w3.org/2000/svg" xmlns:xlink="http://www.w3.org/1999/xlink" xmlns:sketch="http://www.bohemiancoding.com/sketch/ns">
    <title>Slice 1</title>
    <description>Created with Sketch (http://www.bohemiancoding.com/sketch)</description>
    <defs></defs>
    <g id="Page 1" fill="rgb(255,255,255)" fill-rule="evenodd">
        <g id="finger" fill="rgb(0,0,0)">
            <path d="M32.4363921,31.3321067 C31.7082773,31.3321067 31.0507364,31.6428223 30.5963101,32.1376868 L25.9952445,37.4238432 C25.5379495,37.9443631 24.8677855,38.2733226 24.1149987,38.2733226 C22.7402446,38.2733226 21.6236872,37.1644384 21.6236872,35.7984299 L20.5788511,9.09969104 C20.5788511,7.7291216 19.46172,6.61852697 18.0818018,6.61852697 C16.7862281,6.61852697 15.7218838,7.59571331 15.5956542,8.85168857 L14.1457362,28.1422812 L3.18614609,32.9615089 C1.43212974,33.7180587 0.202539641,35.4569258 0.202539641,37.4808533 C0.202539641,37.7037703 0.216883904,37.9255472 0.246719969,38.1421929 L2.20958882,52.7503872 C2.53491668,55.1551549 4.60909711,57.011467 7.12106447,57.011467 L19.1599171,57.011467 C21.0441794,57.011467 22.6799992,55.9687168 23.5194254,54.4345228 L34.6023766,35.0395986 C34.8106553,34.6787124 34.9299995,34.2562532 34.9299995,33.8081385 C34.9299991,32.439851 33.815736,31.3321067 32.4363921,31.3321067 L32.4363921,31.3321067 Z M32.4363921,31.3321067" id="Shape" fill="rgb(254,255,254)"></path>
            <path d="M8.90090192,12.9371716 C8.90262323,12.9377417 8.90204946,12.9388819 8.90204946,12.9388819 C8.90204946,12.9388819 8.90090192,12.9417325 8.90262323,12.9423026 C8.90262323,12.9423026 8.90262323,12.9423026 8.90434454,12.9428728 L8.90434454,12.9428728 C9.20155766,13.649822 10.0186069,13.9856229 10.7335248,13.6925811 C11.4495904,13.398399 11.7892626,12.5836969 11.4920495,11.873897 C11.4909019,11.8704763 11.4903281,11.8704763 11.4903281,11.8653452 C10.7954921,10.1943224 10.7989347,8.35112312 11.4966396,6.67953032 C12.1943445,5.00451664 13.5140167,3.69495001 15.2049182,2.99712266 C15.9198363,2.70408078 16.2595084,1.890519 15.9622953,1.18071904 C15.667951,0.468638701 14.848033,0.131697505 14.1319674,0.427019871 L14.1290985,0.416757704 C9.21131197,2.43897496 6.86975385,8.05637097 8.90090192,12.9371716 L8.90090192,12.9371716 Z M8.90090192,12.9371716" id="Shape" fill="rgb(254,255,254)"></path>
            <path d="M27.0722123,12.9371716 C27.0699173,12.9377417 27.070491,12.9388819 27.070491,12.9388819 C27.070491,12.9388819 27.0722123,12.9417325 27.0699173,12.9423026 C27.0699173,12.9423026 27.0699173,12.9423026 27.0687697,12.9428728 L27.0687697,12.9428728 C26.7704091,13.649822 25.9545074,13.9856229 25.2395894,13.6925811 C24.5229501,13.398399 24.183278,12.5836969 24.4810648,11.873897 C24.4822123,11.8704763 24.4827861,11.8704763 24.4827861,11.8653452 C25.178196,10.1943224 25.1741796,8.35112312 24.4759009,6.67953032 C23.7793435,5.00451664 22.4590975,3.69495001 20.7676223,2.99712266 C20.053278,2.70408078 19.7136059,1.890519 20.010819,1.18071904 C20.3063108,0.468638701 21.1250813,0.131697505 21.8411469,0.427019871 L21.8445895,0.416757704 C26.7612288,2.43897496 29.102787,8.05637097 27.0722123,12.9371716 L27.0722123,12.9371716 Z M27.0722123,12.9371716" id="Shape" fill="rgb(254,255,254)"></path>
        </g>
    </g>
</svg>