<?xml version="1.0" encoding="utf-8"?>
<!-- Generator: Adobe Illustrator 16.2.0, SVG Export Plug-In . SVG Version: 6.00 Build 0)  -->
<!DOCTYPE svg PUBLIC "-//W3C//DTD SVG 1.1//EN" "http://www.w3.org/Graphics/SVG/1.1/DTD/svg11.dtd">
<svg version="1.1" id="Ebene_1" xmlns="http://www.w3.org/2000/svg" xmlns:xlink="http://www.w3.org/1999/xlink" x="0px" y="0px"
	 viewBox="0 0 103.826 66.486" enable-background="new 0 0 103.826 66.486"
	 xml:space="preserve">
<g>
	<path fill="#FFFFFF" d="M64.321,0H39.504c-1.656,0-3,1.344-3,3v24.82c0,1.658,1.344,3,3,3h24.817c1.658,0,3-1.342,3-3V3
		C67.321,1.344,65.979,0,64.321,0z M46.304,19.344l5.609-7.865l5.607,7.865H46.304z"/>
	<path fill="#FFFFFF" d="M64.321,35.667H39.504c-1.656,0-3,1.344-3,3v24.819c0,1.658,1.344,3,3,3h24.817c1.658,0,3-1.342,3-3V38.667
		C67.321,37.01,65.979,35.667,64.321,35.667z M51.911,55.01l-5.607-7.865h11.216L51.911,55.01z"/>
	<path fill="#FFFFFF" d="M100.826,35.667H76.008c-1.655,0-3,1.344-3,3v24.819c0,1.658,1.345,3,3,3h24.818c1.657,0,3-1.342,3-3
		V38.667C103.826,37.01,102.483,35.667,100.826,35.667z M84.481,56.686V45.469l7.867,5.608L84.481,56.686z"/>
	<path fill="#FFFFFF" d="M27.818,35.667H3c-1.656,0-3,1.344-3,3v24.819c0,1.658,1.344,3,3,3h24.818c1.657,0,3-1.342,3-3V38.667
		C30.818,37.01,29.476,35.667,27.818,35.667z M19.341,56.686l-7.866-5.609l7.866-5.606V56.686z"/>
</g>
</svg>
