<?xml version="1.0" encoding="UTF-8" standalone="no"?>
<svg width="78px" height="39px" viewBox="0 0 78 39" version="1.1" xmlns="http://www.w3.org/2000/svg" xmlns:xlink="http://www.w3.org/1999/xlink" xmlns:sketch="http://www.bohemiancoding.com/sketch/ns">
    <title>Slice 1</title>
    <description>Created with Sketch (http://www.bohemiancoding.com/sketch)</description>
    <defs></defs>
    <g id="Page 1" fill="rgb(206,206,206)" fill-rule="evenodd">
        <g id="keyborad" fill="rgb(0,0,0)">
            <path d="M1.17,8.58 L7.17599985,8.58 C7.72199984,8.58 8.18999981,8.11199998 8.18999981,7.56600004 L8.18999981,7.56600004 L8.18999981,1.56 C8.18999981,1.01400001 7.7219998,0.546000037 7.17599985,0.546000037 L7.17599985,0.546000037 L1.17,0.546000037 C0.624000009,0.546000037 0.156000037,1.01400006 0.156000037,1.56 L0.156000037,1.56 L0.156000037,7.56599985 C0.156000002,8.19 0.624000009,8.58 1.17,8.58 L1.17,8.58 L1.17,8.58 Z M1.17,8.58" id="Shape" fill="rgb(254,255,254)"></path>
            <path d="M65.91,38.4540024 L76.83,38.4540024 C77.376,38.4540024 77.844,37.9860024 77.844,37.4400024 L77.844,37.4400024 L77.844,31.4340026 C77.844,30.8880026 77.3759999,30.4200026 76.83,30.4200026 L76.83,30.4200026 L65.91,30.4200026 C65.364,30.4200026 64.896,30.8880026 64.896,31.4340026 L64.896,31.4340026 L64.896,37.44 C64.8179988,38.0640024 65.3640024,38.4540024 65.91,38.4540024 L65.91,38.4540024 L65.91,38.4540024 Z M65.91,38.4540024" id="Shape" fill="rgb(254,255,254)"></path>
            <path d="M61.8540024,38.4540024 L15.99,38.4540024 C15.444,38.4540024 14.976,37.9860024 14.976,37.4400024 L14.976,37.4400024 L14.976,31.4340026 C14.976,30.8880026 15.4440001,30.4200026 15.99,30.4200026 L15.99,30.4200026 L61.8539994,30.4200026 C62.3999994,30.4200026 62.8679994,30.8880026 62.8679994,31.4340026 L62.8679994,31.4340026 L62.8679994,37.44 C62.8679988,38.0640024 62.4,38.4540024 61.8540024,38.4540024 L61.8540024,38.4540024 L61.8540024,38.4540024 Z M61.8540024,38.4540024" id="Shape" fill="rgb(254,255,254)"></path>
            <path d="M1.17,38.4540024 L12.09,38.4540024 C12.636,38.4540024 13.104,37.9860024 13.104,37.4400024 L13.104,37.4400024 L13.104,31.4340026 C13.104,30.8880026 12.6359999,30.4200026 12.09,30.4200026 L12.09,30.4200026 L1.17,30.4200026 C0.624000009,30.4200026 0.156000037,30.8880026 0.156000037,31.4340026 L0.156000037,31.4340026 L0.156000037,37.44 C0.156000002,38.0640024 0.624000009,38.4540024 1.17,38.4540024 L1.17,38.4540024 L1.17,38.4540024 Z M1.17,38.4540024" id="Shape" fill="rgb(254,255,254)"></path>
            <path d="M1.17,18.5639994 L11.1540001,18.5639994 C11.7000001,18.5639994 12.1680001,18.0959994 12.1680001,17.5499994 L12.1680001,17.5499994 L12.1680001,11.5439996 C12.1680001,10.9979996 11.7000001,10.5299996 11.1540001,10.5299996 L11.1540001,10.5299996 L1.17,10.5299996 C0.624000009,10.5299996 0.156000037,10.9979996 0.156000037,11.5439996 L0.156000037,11.5439996 L0.156000037,17.5499994 C0.156000002,18.0960006 0.624000009,18.5639994 1.17,18.5639994 L1.17,18.5639994 L1.17,18.5639994 Z M1.17,18.5639994" id="Shape" fill="rgb(254,255,254)"></path>
            <path d="M64.8179988,18.5639994 L76.751999,18.5639994 C77.2979989,18.5639994 77.7659989,18.0959994 77.7659989,17.5499994 L77.7659989,17.5499994 L77.7659989,11.5439996 C77.7659989,10.9979996 77.2979989,10.5299996 76.751999,10.5299996 L76.751999,10.5299996 L64.8179988,10.5299996 C64.2719988,10.5299996 63.8039988,10.9979996 63.8039988,11.5439996 L63.8039988,11.5439996 L63.8039988,17.5499994 C63.96,18.0960006 64.35,18.5639994 64.8179988,18.5639994 L64.8179988,18.5639994 L64.8179988,18.5639994 Z M64.8179988,18.5639994" id="Shape" fill="rgb(254,255,254)"></path>
            <path d="M11.0759999,8.58 L17.0819997,8.58 C17.6279997,8.58 18.0959997,8.11199998 18.0959997,7.56600004 L18.0959997,7.56600004 L18.0959997,1.56 C18.0959997,1.01400001 17.6279996,0.546000037 17.0819997,0.546000037 L17.0819997,0.546000037 L11.0759999,0.546000037 C10.5299999,0.546000037 10.0619999,1.01400006 10.0619999,1.56 L10.0619999,1.56 L10.0619999,7.56599985 C10.14,8.19 10.53,8.58 11.0759999,8.58 L11.0759999,8.58 L11.0759999,8.58 Z M11.0759999,8.58" id="Shape" fill="rgb(254,255,254)"></path>
            <path d="M21.06,8.58 L27.0659999,8.58 C27.6119998,8.58 28.0799998,8.11199998 28.0799998,7.56600004 L28.0799998,7.56600004 L28.0799998,1.56 C28.0799998,1.01400001 27.6119998,0.546000037 27.0659999,0.546000037 L27.0659999,0.546000037 L21.06,0.546000037 C20.514,0.546000037 20.046,1.01400006 20.046,1.56 L20.046,1.56 L20.046,7.56599985 C20.0460006,8.19 20.5139994,8.58 21.06,8.58 L21.06,8.58 L21.06,8.58 Z M21.06,8.58" id="Shape" fill="rgb(254,255,254)"></path>
            <path d="M31.0439994,8.58 L37.0499993,8.58 C37.5959992,8.58 38.0639992,8.11199998 38.0639992,7.56600004 L38.0639992,7.56600004 L38.0639992,1.56 C38.0639992,1.01400001 37.5959992,0.546000037 37.0499993,0.546000037 L37.0499993,0.546000037 L31.0439994,0.546000037 C30.4979994,0.546000037 30.0299994,1.01400006 30.0299994,1.56 L30.0299994,1.56 L30.0299994,7.56599985 C30.03,8.19 30.42,8.58 31.0439994,8.58 L31.0439994,8.58 L31.0439994,8.58 Z M31.0439994,8.58" id="Shape" fill="rgb(254,255,254)"></path>
            <path d="M40.95,8.58 L46.9559999,8.58 C47.5019998,8.58 47.9699998,8.11199998 47.9699998,7.56600004 L47.9699998,7.56600004 L47.9699998,1.56 C47.9699998,1.01400001 47.5019998,0.546000037 46.9559999,0.546000037 L46.9559999,0.546000037 L40.95,0.546000037 C40.404,0.546000037 39.936,1.01400006 39.936,1.56 L39.936,1.56 L39.936,7.56599985 C40.0139994,8.19 40.4039994,8.58 40.95,8.58 L40.95,8.58 L40.95,8.58 Z M40.95,8.58" id="Shape" fill="rgb(254,255,254)"></path>
            <path d="M50.9340024,8.58 L56.94,8.58 C57.486,8.58 57.954,8.11199998 57.954,7.56600004 L57.954,7.56600004 L57.954,1.56 C57.954,1.01400001 57.4859999,0.546000037 56.94,0.546000037 L56.94,0.546000037 L50.9340001,0.546000037 C50.3880002,0.546000037 49.9200002,1.01400006 49.9200002,1.56 L49.9200002,1.56 L49.9200002,7.56599985 C49.92,8.19 50.31,8.58 50.9340024,8.58 L50.9340024,8.58 L50.9340024,8.58 Z M50.9340024,8.58" id="Shape" fill="rgb(254,255,254)"></path>
            <path d="M60.84,8.58 L66.8459999,8.58 C67.3919998,8.58 67.8599998,8.11199998 67.8599998,7.56600004 L67.8599998,7.56600004 L67.8599998,1.56 C67.8599998,1.01400001 67.3919998,0.546000037 66.8459999,0.546000037 L66.8459999,0.546000037 L60.84,0.546000037 C60.294,0.546000037 59.826,1.01400006 59.826,1.56 L59.826,1.56 L59.826,7.56599985 C59.9040024,8.19 60.2940024,8.58 60.84,8.58 L60.84,8.58 L60.84,8.58 Z M60.84,8.58" id="Shape" fill="rgb(254,255,254)"></path>
            <path d="M70.8240024,8.58 L76.8300022,8.58 C77.3760022,8.58 77.8440022,8.11199998 77.8440022,7.56600004 L77.8440022,7.56600004 L77.8440022,1.56 C77.8440022,1.01400001 77.3760022,0.546000037 76.8300022,0.546000037 L76.8300022,0.546000037 L70.8240024,0.546000037 C70.2780024,0.546000037 69.8100024,1.01400006 69.8100024,1.56 L69.8100024,1.56 L69.8100024,7.56599985 C69.81,8.19 70.2779988,8.58 70.8240024,8.58 L70.8240024,8.58 L70.8240024,8.58 Z M70.8240024,8.58" id="Shape" fill="rgb(254,255,254)"></path>
            <path d="M15.0539994,18.5639994 L21.06,18.5639994 C21.606,18.5639994 22.074,18.0959994 22.074,17.5499994 L22.074,17.5499994 L22.074,11.5439996 C22.074,10.9979996 21.6059999,10.5299996 21.06,10.5299996 L21.06,10.5299996 L15.0540001,10.5299996 C14.5080002,10.5299996 14.0400002,10.9979996 14.0400002,11.5439996 L14.0400002,11.5439996 L14.0400002,17.5499994 C14.04,18.0960006 14.43,18.5639994 15.0539994,18.5639994 L15.0539994,18.5639994 L15.0539994,18.5639994 Z M15.0539994,18.5639994" id="Shape" fill="rgb(254,255,254)"></path>
            <path d="M24.96,18.5639994 L30.9659999,18.5639994 C31.5119998,18.5639994 31.9799998,18.0959994 31.9799998,17.5499994 L31.9799998,17.5499994 L31.9799998,11.5439996 C31.9799998,10.9979996 31.5119998,10.5299996 30.9659999,10.5299996 L30.9659999,10.5299996 L24.96,10.5299996 C24.414,10.5299996 23.946,10.9979996 23.946,11.5439996 L23.946,11.5439996 L23.946,17.5499994 C24.0239994,18.0960006 24.4139994,18.5639994 24.96,18.5639994 L24.96,18.5639994 L24.96,18.5639994 Z M24.96,18.5639994" id="Shape" fill="rgb(254,255,254)"></path>
            <path d="M34.9439994,18.5639994 L40.9499993,18.5639994 C41.4959992,18.5639994 41.9639992,18.0959994 41.9639992,17.5499994 L41.9639992,17.5499994 L41.9639992,11.5439996 C41.9639992,10.9979996 41.4959992,10.5299996 40.9499993,10.5299996 L40.9499993,10.5299996 L34.9439994,10.5299996 C34.3979994,10.5299996 33.9299994,10.9979996 33.9299994,11.5439996 L33.9299994,11.5439996 L33.9299994,17.5499994 C33.93,18.0960006 34.4760006,18.5639994 34.9439994,18.5639994 L34.9439994,18.5639994 L34.9439994,18.5639994 Z M34.9439994,18.5639994" id="Shape" fill="rgb(254,255,254)"></path>
            <path d="M44.9279988,18.5639994 L50.9339987,18.5639994 C51.4799987,18.5639994 51.9479986,18.0959994 51.9479986,17.5499994 L51.9479986,17.5499994 L51.9479986,11.5439996 C51.9479986,10.9979996 51.4799986,10.5299996 50.9339987,10.5299996 L50.9339987,10.5299996 L44.9279988,10.5299996 C44.3819988,10.5299996 43.9139988,10.9979996 43.9139988,11.5439996 L43.9139988,11.5439996 L43.9139988,17.5499994 C43.9139994,18.0960006 44.46,18.5639994 44.9279988,18.5639994 L44.9279988,18.5639994 L44.9279988,18.5639994 Z M44.9279988,18.5639994" id="Shape" fill="rgb(254,255,254)"></path>
            <path d="M54.8340024,18.5639994 L60.84,18.5639994 C61.386,18.5639994 61.854,18.0959994 61.854,17.5499994 L61.854,17.5499994 L61.854,11.5439996 C61.854,10.9979996 61.3859999,10.5299996 60.84,10.5299996 L60.84,10.5299996 L54.8340001,10.5299996 C54.2880002,10.5299996 53.8200002,10.9979996 53.8200002,11.5439996 L53.8200002,11.5439996 L53.8200002,17.5499994 C53.8979988,18.0960006 54.2879988,18.5639994 54.8340024,18.5639994 L54.8340024,18.5639994 L54.8340024,18.5639994 Z M54.8340024,18.5639994" id="Shape" fill="rgb(254,255,254)"></path>
            <path d="M1.17,28.5479988 L7.17599985,28.5479988 C7.72199984,28.5479988 8.18999981,28.0799988 8.18999981,27.5339988 L8.18999981,27.5339988 L8.18999981,21.527999 C8.18999981,20.981999 7.7219998,20.513999 7.17599985,20.513999 L7.17599985,20.513999 L1.17,20.513999 C0.624000009,20.513999 0.156000037,20.9819991 0.156000037,21.527999 L0.156000037,21.527999 L0.156000037,27.5339988 C0.156000002,28.08 0.624000009,28.5479988 1.17,28.5479988 L1.17,28.5479988 L1.17,28.5479988 Z M1.17,28.5479988" id="Shape" fill="rgb(254,255,254)"></path>
            <path d="M11.0759999,28.5479988 L17.0819997,28.5479988 C17.6279997,28.5479988 18.0959997,28.0799988 18.0959997,27.5339988 L18.0959997,27.5339988 L18.0959997,21.527999 C18.0959997,20.981999 17.6279996,20.513999 17.0819997,20.513999 L17.0819997,20.513999 L11.0759999,20.513999 C10.5299999,20.513999 10.0619999,20.9819991 10.0619999,21.527999 L10.0619999,21.527999 L10.0619999,27.5339988 C10.14,28.08 10.53,28.5479988 11.0759999,28.5479988 L11.0759999,28.5479988 L11.0759999,28.5479988 Z M11.0759999,28.5479988" id="Shape" fill="rgb(254,255,254)"></path>
            <path d="M21.06,28.5479988 L27.0659999,28.5479988 C27.6119998,28.5479988 28.0799998,28.0799988 28.0799998,27.5339988 L28.0799998,27.5339988 L28.0799998,21.527999 C28.0799998,20.981999 27.6119998,20.513999 27.0659999,20.513999 L27.0659999,20.513999 L21.06,20.513999 C20.514,20.513999 20.046,20.9819991 20.046,21.527999 L20.046,21.527999 L20.046,27.5339988 C20.0460006,28.08 20.5139994,28.5479988 21.06,28.5479988 L21.06,28.5479988 L21.06,28.5479988 Z M21.06,28.5479988" id="Shape" fill="rgb(254,255,254)"></path>
            <path d="M31.0439994,28.5479988 L37.0499993,28.5479988 C37.5959992,28.5479988 38.0639992,28.0799988 38.0639992,27.5339988 L38.0639992,27.5339988 L38.0639992,21.527999 C38.0639992,20.981999 37.5959992,20.513999 37.0499993,20.513999 L37.0499993,20.513999 L31.0439994,20.513999 C30.4979994,20.513999 30.0299994,20.9819991 30.0299994,21.527999 L30.0299994,21.527999 L30.0299994,27.5339988 C30.03,28.08 30.42,28.5479988 31.0439994,28.5479988 L31.0439994,28.5479988 L31.0439994,28.5479988 Z M31.0439994,28.5479988" id="Shape" fill="rgb(254,255,254)"></path>
            <path d="M40.95,28.5479988 L46.9559999,28.5479988 C47.5019998,28.5479988 47.9699998,28.0799988 47.9699998,27.5339988 L47.9699998,27.5339988 L47.9699998,21.527999 C47.9699998,20.981999 47.5019998,20.513999 46.9559999,20.513999 L46.9559999,20.513999 L40.95,20.513999 C40.404,20.513999 39.936,20.9819991 39.936,21.527999 L39.936,21.527999 L39.936,27.5339988 C40.0139994,28.08 40.4039994,28.5479988 40.95,28.5479988 L40.95,28.5479988 L40.95,28.5479988 Z M40.95,28.5479988" id="Shape" fill="rgb(254,255,254)"></path>
            <path d="M50.9340024,28.5479988 L56.94,28.5479988 C57.486,28.5479988 57.954,28.0799988 57.954,27.5339988 L57.954,27.5339988 L57.954,21.527999 C57.954,20.981999 57.4859999,20.513999 56.94,20.513999 L56.94,20.513999 L50.9340001,20.513999 C50.3880002,20.513999 49.9200002,20.9819991 49.9200002,21.527999 L49.9200002,21.527999 L49.9200002,27.5339988 C49.92,28.08 50.31,28.5479988 50.9340024,28.5479988 L50.9340024,28.5479988 L50.9340024,28.5479988 Z M50.9340024,28.5479988" id="Shape" fill="rgb(254,255,254)"></path>
            <path d="M60.84,28.5479988 L66.8459999,28.5479988 C67.3919998,28.5479988 67.8599998,28.0799988 67.8599998,27.5339988 L67.8599998,27.5339988 L67.8599998,21.527999 C67.8599998,20.981999 67.3919998,20.513999 66.8459999,20.513999 L66.8459999,20.513999 L60.84,20.513999 C60.294,20.513999 59.826,20.9819991 59.826,21.527999 L59.826,21.527999 L59.826,27.5339988 C59.9040024,28.08 60.2940024,28.5479988 60.84,28.5479988 L60.84,28.5479988 L60.84,28.5479988 Z M60.84,28.5479988" id="Shape" fill="rgb(254,255,254)"></path>
            <path d="M70.8240024,28.5479988 L76.8300022,28.5479988 C77.3760022,28.5479988 77.8440022,28.0799988 77.8440022,27.5339988 L77.8440022,27.5339988 L77.8440022,21.527999 C77.8440022,20.981999 77.3760022,20.513999 76.8300022,20.513999 L76.8300022,20.513999 L70.8240024,20.513999 C70.2780024,20.513999 69.8100024,20.9819991 69.8100024,21.527999 L69.8100024,21.527999 L69.8100024,27.5339988 C69.81,28.08 70.2779988,28.5479988 70.8240024,28.5479988 L70.8240024,28.5479988 L70.8240024,28.5479988 Z M70.8240024,28.5479988" id="Shape" fill="rgb(254,255,254)"></path>
        </g>
    </g>
</svg>