<?xml version="1.0" encoding="UTF-8" standalone="no"?>
<svg width="31px" height="48px" viewBox="0 0 31 48" version="1.1" xmlns="http://www.w3.org/2000/svg" xmlns:xlink="http://www.w3.org/1999/xlink" xmlns:sketch="http://www.bohemiancoding.com/sketch/ns">
    <title>Slice 1</title>
    <description>Created with Sketch (http://www.bohemiancoding.com/sketch)</description>
    <defs></defs>
    <g id="Page 1" fill="rgb(206,206,206)" fill-rule="evenodd">
        <g id="microphone" fill="rgb(0,0,0)">
            <path d="M15.3455251,31.835047 C19.884135,31.835047 23.5647283,28.2800496 23.5647283,23.8934203 L23.5647283,7.94162668 C23.5642032,3.55652059 19.8836094,0 15.3455251,0 C10.8058639,0 7.12684702,3.55652059 7.12684702,7.94162668 L7.12684702,23.8934212 C7.12632189,28.2800501 10.8053393,31.835047 15.3455251,31.835047 L15.3455251,31.835047 Z M15.3455251,31.835047" id="Shape" fill="rgb(254,255,254)"></path>
            <path d="M27.3955929,20.6648819 L27.3955929,23.9040827 C27.3955929,30.3256203 21.9905592,35.5484505 15.345,35.5484505 C8.69944076,35.5484505 3.29440702,30.3256203 3.29440702,23.9040827 L3.29440702,20.6648819 L0,20.6648819 L0,23.9040827 C0,31.5426054 6.00822056,37.8483849 13.6977964,38.6454921 L13.6977964,44.5410407 L4.63476276,44.5410407 L4.63476276,47.7249008 L26.0562884,47.7249008 L26.0562884,44.5410407 L16.9927286,44.5410407 L16.9927286,38.6454907 C24.682305,37.848891 30.6905251,31.5431114 30.6905251,23.9040812 L30.6905251,20.6648804 L27.3955929,20.6648804 L27.3955929,20.6648819 Z M27.3955929,20.6648819" id="Shape" fill="rgb(254,255,254)"></path>
        </g>
    </g>
</svg>