<?xml version="1.0" encoding="UTF-8" standalone="no"?>
<svg width="24px" height="64px" viewBox="0 0 24 64" version="1.1" xmlns="http://www.w3.org/2000/svg" xmlns:xlink="http://www.w3.org/1999/xlink" xmlns:sketch="http://www.bohemiancoding.com/sketch/ns">
    <title>Slice 1</title>
    <description>Created with Sketch (http://www.bohemiancoding.com/sketch)</description>
    <defs></defs>
    <g id="Page 1" fill="rgb(206,206,206)" fill-rule="evenodd">
        <g id="mouse" fill="rgb(255,255,255)">
            <path d="M11.96291,63.7932887 C16.5665464,63.7932887 23.485819,61.7357255 23.485819,49.6007375 C23.485819,46.9156799 23.4210918,42.8020251 23.0160008,38.8148986 C23.0043645,38.7082319 15.8829102,38.0807377 11.8240009,38.0807377 L12.0974554,38.0807377 C8.03854643,38.0807377 0.917091673,38.7089675 0.906183026,38.8148986 C0.500364824,42.8020251 0.436364824,46.9156803 0.436364824,49.6007375 C0.436364824,61.7357262 7.35418307,63.7932887 11.9585469,63.7932887" id="Shape" fill="rgb(254,255,254)"></path>
            <path d="M10.9061806,36.0834933 C6.99418051,36.0606887 3.95563507,36.2828496 0.989816839,36.6822979 C1.37672593,33.8971944 1.95854412,31.379861 2.84072599,29.7658838 C4.44799874,26.8321827 8.0683625,26.7505275 10.9112715,26.8174701 L10.9061806,36.0834933 L10.9061806,36.0834933 Z M10.9061806,36.0834933" id="Shape" fill="rgb(254,255,254)"></path>
            <path d="M12.9934554,36.0393572 C16.9054555,36.0194951 19.9447278,36.2394491 22.9090916,36.6388974 C22.5229098,33.8530583 21.9418188,31.3364605 21.0589098,29.7224833 C19.4516371,26.7887822 15.8312733,26.707127 12.9883643,26.7740696 L12.9934554,36.0393572 L12.9934554,36.0393572 Z M12.9934554,36.0393572" id="Shape" fill="rgb(254,255,254)"></path>
            <path d="M0.266182639,49.6007375 C0.266182639,61.7357262 7.18545532,63.7932887 11.7890916,63.7932887" id="Shape"></path>
            <path d="M12.9883645,26.7895171 L10.9112736,26.8174711 L10.9120009,26.0869884 C10.9083645,24.921747 10.9047282,23.7175172 11.09091,22.5074021 C11.4116373,20.4108504 12.3629099,18.5048274 13.9178191,16.8430344 C14.4465464,16.2765976 15.0145464,15.8146206 15.5643645,15.3680918 C15.9054555,15.0929653 16.2232736,14.8325515 16.5301827,14.5537469 C17.2276372,13.9188964 17.7687281,13.3789423 17.8770918,12.6903906 C18.0814554,11.359632 17.5360009,10.2120458 16.253819,9.28073529 C15.8225462,8.96956287 15.3163644,8.71062036 14.7796372,8.43770078 C13.4385463,7.75356285 11.9192735,6.97820656 11.2269097,5.12662038 C10.6043646,3.47291933 10.9883645,1.46096556 12.2014549,0 L13.7585458,1.32266665 C13.023273,2.20910346 12.7687276,3.44422992 13.124364,4.3961379 C13.5381822,5.49958617 14.5352731,6.00937933 15.6923639,6.60009196 C16.2756366,6.89728737 16.8778185,7.20478163 17.4349093,7.6093793 C19.3389093,8.99016089 20.2087274,10.9086897 19.8836366,13.0081841 C19.6574548,14.4735634 18.6356367,15.4034025 17.8909094,16.0831265 C17.5425457,16.4016552 17.1825457,16.6922299 16.8385457,16.9725058 C16.3200003,17.3947586 15.8283639,17.7934713 15.3956366,18.2569196 C14.1330912,19.6104828 13.3600003,21.1472184 13.1047275,22.8244599 C12.9403639,23.8742071 12.9883639,24.9533795 12.9927275,26.0877242 L12.9927275,26.7895173 L12.9883645,26.7895173 L12.9883645,26.7895171 Z M12.9883645,26.7895171" id="Shape" fill="rgb(254,255,254)"></path>
        </g>
    </g>
</svg>