<?xml version="1.0" encoding="utf-8"?>
<!-- Generator: Adobe Illustrator 16.2.0, SVG Export Plug-In . SVG Version: 6.00 Build 0)  -->
<!DOCTYPE svg PUBLIC "-//W3C//DTD SVG 1.1//EN" "http://www.w3.org/Graphics/SVG/1.1/DTD/svg11.dtd">
<svg version="1.1" id="Ebene_1" xmlns="http://www.w3.org/2000/svg" xmlns:xlink="http://www.w3.org/1999/xlink" x="0px" y="0px" viewBox="0 0 78.879 125.906" enable-background="new 0 0 78.879 125.906"
	 xml:space="preserve">
<g>
	<g>
		<path fill="#FFFFFF" d="M35.751,20.853c0-8.215-6.684-14.897-14.898-14.897c-8.214,0-14.897,6.682-14.897,14.897H0
			C0,9.355,9.354,0,20.853,0s20.853,9.354,20.853,20.853H35.751z"/>
	</g>
	<g>
		<path fill="#FFFFFF" d="M74.327,91.548c0,16.239-13.22,29.462-29.451,29.462c-16.25,0-29.451-13.222-29.451-29.462V24.466
			c0-2.7,2.203-4.914,4.903-4.914s4.914,2.214,4.914,4.914v39.27c0,1.797,1.469,3.276,3.276,3.276c1.796,0,3.266-1.479,3.266-3.276
			c0-2.701,2.213-4.903,4.914-4.903c2.7,0,4.904,2.203,4.904,4.903v4.912c0,1.799,1.479,3.266,3.275,3.266s3.275-1.467,3.275-3.266
			c0-2.699,2.205-4.912,4.902-4.912c2.701,0,4.914,2.213,4.914,4.912v4.904c0,1.796,1.469,3.275,3.266,3.275
			c1.807,0,3.276-1.479,3.276-3.275c0-2.701,2.213-4.904,4.912-4.904c2.702,0,4.904,2.204,4.904,4.904L74.327,91.548L74.327,91.548z
			"/>
		<path fill="#FFFFFF" d="M44.876,124.979c-18.428,0-33.422-14.996-33.422-33.432V24.465c0-4.898,3.98-8.884,8.874-8.884
			c4.898,0,8.884,3.986,8.884,8.884v34.493c1.58-2.462,4.345-4.098,7.484-4.098c4.893,0,8.875,3.98,8.875,8.874v0.143
			c1.577-2.473,4.343-4.114,7.482-4.114c4.899,0,8.885,3.985,8.885,8.883v0.128c1.581-2.463,4.345-4.099,7.483-4.099
			c4.895,0,8.875,3.982,8.875,8.875v17.996C78.298,109.983,63.306,124.979,44.876,124.979z M20.328,23.522
			c-0.505,0-0.933,0.433-0.933,0.943v67.082c0,14.056,11.431,25.491,25.481,25.491s25.48-11.436,25.48-25.491V73.551
			c0-0.506-0.429-0.934-0.933-0.934c-0.512,0-0.942,0.429-0.942,0.934c0,3.996-3.251,7.246-7.246,7.246
			c-3.99,0-7.235-3.25-7.235-7.246v-4.904c0-0.511-0.434-0.942-0.944-0.942c-0.506,0-0.933,0.432-0.933,0.942
			c0,3.991-3.251,7.236-7.246,7.236s-7.246-3.246-7.246-7.236v-4.912c0-0.506-0.428-0.933-0.933-0.933
			c-0.511,0-0.943,0.427-0.943,0.933c0,3.995-3.247,7.246-7.236,7.246c-3.995,0-7.246-3.251-7.246-7.246v-39.27
			C21.271,23.954,20.839,23.522,20.328,23.522z"/>
	</g>
</g>
</svg>
