<?xml version="1.0" encoding="UTF-8" standalone="no"?>
<svg width="26px" height="21px" viewBox="0 0 26 21" version="1.1" xmlns="http://www.w3.org/2000/svg" xmlns:xlink="http://www.w3.org/1999/xlink" xmlns:sketch="http://www.bohemiancoding.com/sketch/ns">
    <title>Slice 1</title>
    <description>Created with Sketch (http://www.bohemiancoding.com/sketch)</description>
    <defs></defs>
    <g id="Page 1" fill="rgb(206,206,206)" fill-rule="evenodd">
        <g id="Layer_1" fill="rgb(0,0,0)">
            <path d="M22.9364204,3.81041224 C24.0376502,3.17468578 24.8835601,2.16801453 25.2817502,0.968422035 C24.2509803,1.55720138 23.1094506,1.98460781 21.8943407,2.21496164 C20.9214208,1.21655314 19.535101,0.592845165 18.0008412,0.592845165 C15.0550416,0.592845165 12.6665518,2.89275276 12.6665518,5.72960979 C12.6665518,6.13222821 12.7137418,6.52433046 12.8046118,6.90028288 C8.37135228,6.68607887 4.44093318,4.64093751 1.80999369,1.53303881 C1.35083374,2.29170408 1.08771376,3.17405933 1.08771376,4.1155054 C1.08771376,5.89774285 2.02943362,7.47003282 3.46073338,8.39119767 C2.58635353,8.36453171 1.76384357,8.13342674 1.04468384,7.74871084 C1.04416384,7.77011872 1.04416384,7.79165179 1.04416384,7.81331006 C1.04416384,10.3021327 2.88288359,12.3783218 5.32311336,12.8502968 C4.87552341,12.9677272 4.40427351,13.0304485 3.9178135,13.0304485 C3.57409354,13.0304485 3.23999357,12.9981489 2.91421367,12.938307 C3.59307359,14.9790666 5.5629633,16.4643479 7.89724313,16.5056614 C6.07165336,17.8835277 3.77169364,18.704664 1.27244419,18.704664 C0.841884246,18.704664 0.417304302,18.6803767 4.35585576e-06,18.6328037 C2.36067407,20.0904174 5.16451378,20.9409739 8.17687297,20.9409739 C17.9883615,20.9409739 23.3538511,13.1134514 23.3538511,6.32514945 C23.3538511,6.10243236 23.3486511,5.8809672 23.3383811,5.66050358 C24.3805901,4.93639193 25.2848692,4.03162757 26,3.00154485 C25.0434602,3.41017248 24.0152903,3.68622147 22.9364204,3.81041224 Z M22.9364204,3.81041224" id="Shape" fill="rgb(254,255,254)"></path>
        </g>
    </g>
</svg>