<?xml version="1.0" encoding="utf-8"?>
<!-- Generator: Adobe Illustrator 16.2.0, SVG Export Plug-In . SVG Version: 6.00 Build 0)  -->
<!DOCTYPE svg PUBLIC "-//W3C//DTD SVG 1.1//EN" "http://www.w3.org/Graphics/SVG/1.1/DTD/svg11.dtd">
<svg version="1.1" id="Ebene_1" xmlns="http://www.w3.org/2000/svg" xmlns:xlink="http://www.w3.org/1999/xlink" x="0px" y="0px" viewBox="0 0 71.588 125.906" enable-background="new 0 0 71.588 125.906"
	 xml:space="preserve">
<g>
	<path fill="#FFFFFF" d="M63.38,57.996v14.941c0,9.74-7.895,17.637-17.635,17.637H25.843c-9.739,0-17.636-7.896-17.636-17.637
		V57.996H0.598v18.116c0,10.902,11.019,21.425,22.978,21.425h6.866v17.557H10.923c-1.496,0-2.705,1.183-2.705,2.641v5.639h55.15
		v-5.639c0-1.457-1.211-2.641-2.705-2.641h-19.52V97.537h6.869c11.963,0,22.977-10.522,22.977-21.425V57.996H63.38z"/>
	<path fill="#FFFFFF" d="M28.696,82.764h14.195c6.947,0,12.576-5.91,12.576-13.199V13.199C55.468,5.909,49.839,0,42.892,0H28.696
		C21.75,0,16.118,5.909,16.118,13.199v56.365C16.119,76.854,21.75,82.764,28.696,82.764z"/>
</g>
</svg>
