<svg xmlns="http://www.w3.org/2000/svg" xmlns:xlink="http://www.w3.org/1999/xlink">
<style type="text/css">
<![CDATA[
.i { display: none; fill: #010101; }
.i:target { display: block; }
]]>
</style>
<svg  xmlns:sketch="http://www.bohemiancoding.com/sketch/ns" width="29px" height="55px" viewBox="0 0 29 55" version="1.1" class="i" id="arrow">
    <title>arrow slim</title>
    <description>Created with Sketch (http://www.bohemiancoding.com/sketch)</description>
    <defs/>
    <g id="Page 1" fill="rgb(206,206,206)" fill-rule="evenodd">
        <g id="arrow" fill="rgb(0,0,0)">
            <path d="M4.83091684,55 C3.90412515,55 2.9712918,54.7068617 2.1913127,54.1024468 C0.367333502,52.6894149 0.0718960961,50.1120212 1.5309585,48.3455852 L18.7509162,27.5 L1.53095857,6.65441498 C0.0718960961,4.88797878 0.367937768,2.31058532 2.19131277,0.897553424 C4.01589609,-0.514893405 6.67664598,-0.228776336 8.13570845,1.53707473 L27.4690418,24.9413301 C28.7051668,26.437447 28.7051668,28.5625535 27.4690418,30.0586706 L8.13570845,53.462926 C7.30074978,54.4739881 6.0712707,55 4.83091684,55 L4.83091684,55 Z M4.83091684,55" id="Shape"/>
        </g>
    </g>
</svg>
<svg  version="1.1" id="crown-blue" x="0px" y="0px" viewBox="0 0 108.697 106.617" enable-background="new 0 0 108.697 106.617" xml:space="preserve" class="i">
<g>
	<rect x="13.125" y="92.83" fill="#0099FF" width="82.217" height="13.787"/>
	<path fill="#0099FF" d="M108.697,21.533c0-6.222-5.045-11.267-11.266-11.267c-6.224,0-11.267,5.045-11.267,11.267   c0,4.291,2.399,8.02,5.928,9.922l-15.27,20.841l-19.92-30.065c4.989-1.159,8.711-5.623,8.711-10.964C65.614,5.045,60.57,0,54.348,0   c-6.223,0-11.266,5.045-11.266,11.267c0,5.289,3.65,9.715,8.565,10.927L31.781,52.297L16.547,31.482   c3.56-1.894,5.984-5.637,5.984-9.949c0-6.222-5.044-11.267-11.266-11.267C5.043,10.266,0,15.312,0,21.533   c0,5.787,4.366,10.551,9.982,11.188l3.283,51.233h82.166l3.277-51.232C104.328,32.086,108.697,27.322,108.697,21.533z"/>
</g>
</svg>
<svg  version="1.1" id="crown" x="0px" y="0px" viewBox="0 0 108.697 106.617" enable-background="new 0 0 108.697 106.617" xml:space="preserve" class="i">
<g>
	<rect x="13.125" y="92.83" fill="#FFFFFF" width="82.217" height="13.787"/>
	<path fill="#FFFFFF" d="M108.697,21.533c0-6.222-5.045-11.267-11.266-11.267c-6.224,0-11.267,5.045-11.267,11.267   c0,4.291,2.399,8.02,5.928,9.922l-15.27,20.841l-19.92-30.065c4.989-1.159,8.711-5.623,8.711-10.964C65.614,5.045,60.57,0,54.348,0   c-6.223,0-11.266,5.045-11.266,11.267c0,5.289,3.65,9.715,8.565,10.927L31.781,52.297L16.547,31.482   c3.56-1.894,5.984-5.637,5.984-9.949c0-6.222-5.044-11.267-11.266-11.267C5.043,10.266,0,15.312,0,21.533   c0,5.787,4.366,10.551,9.982,11.188l3.283,51.233h82.166l3.277-51.232C104.328,32.086,108.697,27.322,108.697,21.533z"/>
</g>
</svg>
<svg  version="1.1" id="keyboard" x="0px" y="0px" viewBox="0 0 103.826 66.486" enable-background="new 0 0 103.826 66.486" xml:space="preserve" class="i">
<g>
	<path fill="#FFFFFF" d="M64.321,0H39.504c-1.656,0-3,1.344-3,3v24.82c0,1.658,1.344,3,3,3h24.817c1.658,0,3-1.342,3-3V3   C67.321,1.344,65.979,0,64.321,0z M46.304,19.344l5.609-7.865l5.607,7.865H46.304z"/>
	<path fill="#FFFFFF" d="M64.321,35.667H39.504c-1.656,0-3,1.344-3,3v24.819c0,1.658,1.344,3,3,3h24.817c1.658,0,3-1.342,3-3V38.667   C67.321,37.01,65.979,35.667,64.321,35.667z M51.911,55.01l-5.607-7.865h11.216L51.911,55.01z"/>
	<path fill="#FFFFFF" d="M100.826,35.667H76.008c-1.655,0-3,1.344-3,3v24.819c0,1.658,1.345,3,3,3h24.818c1.657,0,3-1.342,3-3   V38.667C103.826,37.01,102.483,35.667,100.826,35.667z M84.481,56.686V45.469l7.867,5.608L84.481,56.686z"/>
	<path fill="#FFFFFF" d="M27.818,35.667H3c-1.656,0-3,1.344-3,3v24.819c0,1.658,1.344,3,3,3h24.818c1.657,0,3-1.342,3-3V38.667   C30.818,37.01,29.476,35.667,27.818,35.667z M19.341,56.686l-7.866-5.609l7.866-5.606V56.686z"/>
</g>
</svg>
<svg  version="1.1" id="mouse" x="0px" y="0px" viewBox="0 0 63.268 103.645" enable-background="new 0 0 63.268 103.645" xml:space="preserve" class="i">
<polygon fill="#FFFFFF" points="62.573,63.291 1.141,0 1.141,88.201 22.813,70.92 34.82,100.638 46.824,95.786 34.817,66.072 "/>
</svg>
<svg  version="1.1" id="touch" x="0px" y="0px" viewBox="0 0 78.879 125.906" enable-background="new 0 0 78.879 125.906" xml:space="preserve" class="i">
<g>
	<g>
		<path fill="#FFFFFF" d="M35.751,20.853c0-8.215-6.684-14.897-14.898-14.897c-8.214,0-14.897,6.682-14.897,14.897H0    C0,9.355,9.354,0,20.853,0s20.853,9.354,20.853,20.853H35.751z"/>
	</g>
	<g>
		<path fill="#FFFFFF" d="M74.327,91.548c0,16.239-13.22,29.462-29.451,29.462c-16.25,0-29.451-13.222-29.451-29.462V24.466    c0-2.7,2.203-4.914,4.903-4.914s4.914,2.214,4.914,4.914v39.27c0,1.797,1.469,3.276,3.276,3.276c1.796,0,3.266-1.479,3.266-3.276    c0-2.701,2.213-4.903,4.914-4.903c2.7,0,4.904,2.203,4.904,4.903v4.912c0,1.799,1.479,3.266,3.275,3.266s3.275-1.467,3.275-3.266    c0-2.699,2.205-4.912,4.902-4.912c2.701,0,4.914,2.213,4.914,4.912v4.904c0,1.796,1.469,3.275,3.266,3.275    c1.807,0,3.276-1.479,3.276-3.275c0-2.701,2.213-4.904,4.912-4.904c2.702,0,4.904,2.204,4.904,4.904L74.327,91.548L74.327,91.548z    "/>
		<path fill="#FFFFFF" d="M44.876,124.979c-18.428,0-33.422-14.996-33.422-33.432V24.465c0-4.898,3.98-8.884,8.874-8.884    c4.898,0,8.884,3.986,8.884,8.884v34.493c1.58-2.462,4.345-4.098,7.484-4.098c4.893,0,8.875,3.98,8.875,8.874v0.143    c1.577-2.473,4.343-4.114,7.482-4.114c4.899,0,8.885,3.985,8.885,8.883v0.128c1.581-2.463,4.345-4.099,7.483-4.099    c4.895,0,8.875,3.982,8.875,8.875v17.996C78.298,109.983,63.306,124.979,44.876,124.979z M20.328,23.522    c-0.505,0-0.933,0.433-0.933,0.943v67.082c0,14.056,11.431,25.491,25.481,25.491s25.48-11.436,25.48-25.491V73.551    c0-0.506-0.429-0.934-0.933-0.934c-0.512,0-0.942,0.429-0.942,0.934c0,3.996-3.251,7.246-7.246,7.246    c-3.99,0-7.235-3.25-7.235-7.246v-4.904c0-0.511-0.434-0.942-0.944-0.942c-0.506,0-0.933,0.432-0.933,0.942    c0,3.991-3.251,7.236-7.246,7.236s-7.246-3.246-7.246-7.236v-4.912c0-0.506-0.428-0.933-0.933-0.933    c-0.511,0-0.943,0.427-0.943,0.933c0,3.995-3.247,7.246-7.236,7.246c-3.995,0-7.246-3.251-7.246-7.246v-39.27    C21.271,23.954,20.839,23.522,20.328,23.522z"/>
	</g>
</g>
</svg>
<svg  version="1.1" id="voice" x="0px" y="0px" viewBox="0 0 71.588 125.906" enable-background="new 0 0 71.588 125.906" xml:space="preserve" class="i">
<g>
	<path fill="#FFFFFF" d="M63.38,57.996v14.941c0,9.74-7.895,17.637-17.635,17.637H25.843c-9.739,0-17.636-7.896-17.636-17.637   V57.996H0.598v18.116c0,10.902,11.019,21.425,22.978,21.425h6.866v17.557H10.923c-1.496,0-2.705,1.183-2.705,2.641v5.639h55.15   v-5.639c0-1.457-1.211-2.641-2.705-2.641h-19.52V97.537h6.869c11.963,0,22.977-10.522,22.977-21.425V57.996H63.38z"/>
	<path fill="#FFFFFF" d="M28.696,82.764h14.195c6.947,0,12.576-5.91,12.576-13.199V13.199C55.468,5.909,49.839,0,42.892,0H28.696   C21.75,0,16.118,5.909,16.118,13.199v56.365C16.119,76.854,21.75,82.764,28.696,82.764z"/>
</g>
</svg>
</svg>