<svg xmlns="http://www.w3.org/2000/svg" xmlns:xlink="http://www.w3.org/1999/xlink">
<style type="text/css">
<![CDATA[
.i { display: none; fill: #010101; }
.i:target { display: block; }
]]>
</style>
<svg  xmlns:sketch="http://www.bohemiancoding.com/sketch/ns" width="29px" height="55px" viewBox="0 0 29 55" version="1.1" class="i" id="arrow">
    <title>arrow slim</title>
    <description>Created with Sketch (http://www.bohemiancoding.com/sketch)</description>
    <defs/>
    <g id="Page 1" fill="rgb(206,206,206)" fill-rule="evenodd">
        <g id="arrow" fill="rgb(0,0,0)">
            <path d="M4.83091684,55 C3.90412515,55 2.9712918,54.7068617 2.1913127,54.1024468 C0.367333502,52.6894149 0.0718960961,50.1120212 1.5309585,48.3455852 L18.7509162,27.5 L1.53095857,6.65441498 C0.0718960961,4.88797878 0.367937768,2.31058532 2.19131277,0.897553424 C4.01589609,-0.514893405 6.67664598,-0.228776336 8.13570845,1.53707473 L27.4690418,24.9413301 C28.7051668,26.437447 28.7051668,28.5625535 27.4690418,30.0586706 L8.13570845,53.462926 C7.30074978,54.4739881 6.0712707,55 4.83091684,55 L4.83091684,55 Z M4.83091684,55" id="Shape"/>
        </g>
    </g>
</svg>
<svg  xmlns:sketch="http://www.bohemiancoding.com/sketch/ns" width="19px" height="16px" viewBox="0 0 19 16" version="1.1" class="i" id="crown">
    <title>Slice 1</title>
    <description>Created with Sketch (http://www.bohemiancoding.com/sketch)</description>
    <defs/>
    <g id="Page 1" fill="rgb(206,206,206)" fill-rule="evenodd">
        <g id="Layer_1" fill="rgb(0,0,0)">
            <path d="M19,4.46511628 C19,3.43758144 18.14918,2.60465116 17.1,2.60465116 C16.05063,2.60465116 15.2,3.43758144 15.2,4.46511628 C15.2,4.92130231 15.36815,5.33860468 15.6465,5.66213954 L13.6801899,7.81395349 L12.7174599,3.63925597 C13.4945604,3.40595334 14.06,2.69804648 14.06,1.86046512 C14.06,0.832930277 13.20918,0 12.16,0 C11.11063,0 10.26,0.832930277 10.26,1.86046512 C10.26,2.52688372 10.61891,3.10958144 11.15642,3.43813945 L9.5,7.62772103 L7.84377,3.4381398 C8.38109001,3.10939523 8.74,2.52669774 8.74,1.86046512 C8.74,0.832930277 7.88917997,0 6.84,0 C5.79063004,0 4.94,0.832930277 4.94,1.86046512 C4.94,2.69804648 5.50544001,3.40613946 6.28254,3.63925579 L5.32,7.81395349 L3.35349993,5.66195359 C3.63184996,5.33841865 3.8,4.92130226 3.8,4.46511628 C3.8,3.43758144 2.94917997,2.60465116 1.9,2.60465116 C0.850630045,2.60465116 0,3.43758126 0,4.46511628 C0,5.46530231 0.806359992,6.2786977 1.81716002,6.32148831 L3.9901899,12.2790698 L15.01,12.2790698 L17.1832199,6.32148849 C18.1936394,6.27869788 19,5.46530222 19,4.46511628 L19,4.46511628 Z M19,4.46511628" id="Shape" fill="rgb(254,255,254)"/>
            <path d="M3.9901899,13.3953488 L3.9901899,16 L15.01,16 L15.01,13.3953488 L3.9901899,13.3953488 Z M3.9901899,13.3953488" id="Rectangle" fill="rgb(254,255,254)"/>
        </g>
    </g>
</svg>
<svg  xmlns:sketch="http://www.bohemiancoding.com/sketch/ns" width="13px" height="25px" viewBox="0 0 13 25" version="1.1" class="i" id="facebook">
    <title>Slice 1</title>
    <description>Created with Sketch (http://www.bohemiancoding.com/sketch)</description>
    <defs/>
    <g id="Page 1" fill="rgb(255,255,255)" fill-rule="evenodd">
        <g id="Layer_1" fill="rgb(0,0,0)">
            <path d="M3.49278038,25 L3.49278038,13.2691198 L0.390999794,13.2691198 L0.390999794,9.04551122 L3.49278038,9.04551122 L3.49278038,5.43797337 C3.49278038,2.6030887 5.32503936,0 9.54682517,0 C11.2562347,0 12.5205139,0.163875388 12.5205139,0.163875388 L12.4206844,4.10805301 C12.4206844,4.10805301 11.1315617,4.09551734 9.72483165,4.09551734 C8.20231762,4.09551734 7.95844182,4.79705901 7.95844182,5.96173662 C7.95844182,6.88231063 7.95844182,3.99956237 7.95844182,9.04573933 L12.5417104,9.04573933 L12.3422793,13.2693484 L7.95844182,13.2693484 L7.95844182,25 L3.49278038,25 L3.49278038,25 Z M3.49278038,25" id="Shape" fill="rgb(254,255,254)"/>
        </g>
    </g>
</svg>
<svg  xmlns:sketch="http://www.bohemiancoding.com/sketch/ns" width="35px" height="58px" viewBox="0 0 35 58" version="1.1" class="i" id="finger">
    <title>Slice 1</title>
    <description>Created with Sketch (http://www.bohemiancoding.com/sketch)</description>
    <defs/>
    <g id="Page 1" fill="rgb(255,255,255)" fill-rule="evenodd">
        <g id="finger" fill="rgb(0,0,0)">
            <path d="M32.4363921,31.3321067 C31.7082773,31.3321067 31.0507364,31.6428223 30.5963101,32.1376868 L25.9952445,37.4238432 C25.5379495,37.9443631 24.8677855,38.2733226 24.1149987,38.2733226 C22.7402446,38.2733226 21.6236872,37.1644384 21.6236872,35.7984299 L20.5788511,9.09969104 C20.5788511,7.7291216 19.46172,6.61852697 18.0818018,6.61852697 C16.7862281,6.61852697 15.7218838,7.59571331 15.5956542,8.85168857 L14.1457362,28.1422812 L3.18614609,32.9615089 C1.43212974,33.7180587 0.202539641,35.4569258 0.202539641,37.4808533 C0.202539641,37.7037703 0.216883904,37.9255472 0.246719969,38.1421929 L2.20958882,52.7503872 C2.53491668,55.1551549 4.60909711,57.011467 7.12106447,57.011467 L19.1599171,57.011467 C21.0441794,57.011467 22.6799992,55.9687168 23.5194254,54.4345228 L34.6023766,35.0395986 C34.8106553,34.6787124 34.9299995,34.2562532 34.9299995,33.8081385 C34.9299991,32.439851 33.815736,31.3321067 32.4363921,31.3321067 L32.4363921,31.3321067 Z M32.4363921,31.3321067" id="Shape" fill="rgb(254,255,254)"/>
            <path d="M8.90090192,12.9371716 C8.90262323,12.9377417 8.90204946,12.9388819 8.90204946,12.9388819 C8.90204946,12.9388819 8.90090192,12.9417325 8.90262323,12.9423026 C8.90262323,12.9423026 8.90262323,12.9423026 8.90434454,12.9428728 L8.90434454,12.9428728 C9.20155766,13.649822 10.0186069,13.9856229 10.7335248,13.6925811 C11.4495904,13.398399 11.7892626,12.5836969 11.4920495,11.873897 C11.4909019,11.8704763 11.4903281,11.8704763 11.4903281,11.8653452 C10.7954921,10.1943224 10.7989347,8.35112312 11.4966396,6.67953032 C12.1943445,5.00451664 13.5140167,3.69495001 15.2049182,2.99712266 C15.9198363,2.70408078 16.2595084,1.890519 15.9622953,1.18071904 C15.667951,0.468638701 14.848033,0.131697505 14.1319674,0.427019871 L14.1290985,0.416757704 C9.21131197,2.43897496 6.86975385,8.05637097 8.90090192,12.9371716 L8.90090192,12.9371716 Z M8.90090192,12.9371716" id="Shape" fill="rgb(254,255,254)"/>
            <path d="M27.0722123,12.9371716 C27.0699173,12.9377417 27.070491,12.9388819 27.070491,12.9388819 C27.070491,12.9388819 27.0722123,12.9417325 27.0699173,12.9423026 C27.0699173,12.9423026 27.0699173,12.9423026 27.0687697,12.9428728 L27.0687697,12.9428728 C26.7704091,13.649822 25.9545074,13.9856229 25.2395894,13.6925811 C24.5229501,13.398399 24.183278,12.5836969 24.4810648,11.873897 C24.4822123,11.8704763 24.4827861,11.8704763 24.4827861,11.8653452 C25.178196,10.1943224 25.1741796,8.35112312 24.4759009,6.67953032 C23.7793435,5.00451664 22.4590975,3.69495001 20.7676223,2.99712266 C20.053278,2.70408078 19.7136059,1.890519 20.010819,1.18071904 C20.3063108,0.468638701 21.1250813,0.131697505 21.8411469,0.427019871 L21.8445895,0.416757704 C26.7612288,2.43897496 29.102787,8.05637097 27.0722123,12.9371716 L27.0722123,12.9371716 Z M27.0722123,12.9371716" id="Shape" fill="rgb(254,255,254)"/>
        </g>
    </g>
</svg>
<svg  xmlns:sketch="http://www.bohemiancoding.com/sketch/ns" width="78px" height="39px" viewBox="0 0 78 39" version="1.1" class="i" id="keyboard">
    <title>Slice 1</title>
    <description>Created with Sketch (http://www.bohemiancoding.com/sketch)</description>
    <defs/>
    <g id="Page 1" fill="rgb(206,206,206)" fill-rule="evenodd">
        <g id="keyborad" fill="rgb(0,0,0)">
            <path d="M1.17,8.58 L7.17599985,8.58 C7.72199984,8.58 8.18999981,8.11199998 8.18999981,7.56600004 L8.18999981,7.56600004 L8.18999981,1.56 C8.18999981,1.01400001 7.7219998,0.546000037 7.17599985,0.546000037 L7.17599985,0.546000037 L1.17,0.546000037 C0.624000009,0.546000037 0.156000037,1.01400006 0.156000037,1.56 L0.156000037,1.56 L0.156000037,7.56599985 C0.156000002,8.19 0.624000009,8.58 1.17,8.58 L1.17,8.58 L1.17,8.58 Z M1.17,8.58" id="Shape" fill="rgb(254,255,254)"/>
            <path d="M65.91,38.4540024 L76.83,38.4540024 C77.376,38.4540024 77.844,37.9860024 77.844,37.4400024 L77.844,37.4400024 L77.844,31.4340026 C77.844,30.8880026 77.3759999,30.4200026 76.83,30.4200026 L76.83,30.4200026 L65.91,30.4200026 C65.364,30.4200026 64.896,30.8880026 64.896,31.4340026 L64.896,31.4340026 L64.896,37.44 C64.8179988,38.0640024 65.3640024,38.4540024 65.91,38.4540024 L65.91,38.4540024 L65.91,38.4540024 Z M65.91,38.4540024" id="Shape" fill="rgb(254,255,254)"/>
            <path d="M61.8540024,38.4540024 L15.99,38.4540024 C15.444,38.4540024 14.976,37.9860024 14.976,37.4400024 L14.976,37.4400024 L14.976,31.4340026 C14.976,30.8880026 15.4440001,30.4200026 15.99,30.4200026 L15.99,30.4200026 L61.8539994,30.4200026 C62.3999994,30.4200026 62.8679994,30.8880026 62.8679994,31.4340026 L62.8679994,31.4340026 L62.8679994,37.44 C62.8679988,38.0640024 62.4,38.4540024 61.8540024,38.4540024 L61.8540024,38.4540024 L61.8540024,38.4540024 Z M61.8540024,38.4540024" id="Shape" fill="rgb(254,255,254)"/>
            <path d="M1.17,38.4540024 L12.09,38.4540024 C12.636,38.4540024 13.104,37.9860024 13.104,37.4400024 L13.104,37.4400024 L13.104,31.4340026 C13.104,30.8880026 12.6359999,30.4200026 12.09,30.4200026 L12.09,30.4200026 L1.17,30.4200026 C0.624000009,30.4200026 0.156000037,30.8880026 0.156000037,31.4340026 L0.156000037,31.4340026 L0.156000037,37.44 C0.156000002,38.0640024 0.624000009,38.4540024 1.17,38.4540024 L1.17,38.4540024 L1.17,38.4540024 Z M1.17,38.4540024" id="Shape" fill="rgb(254,255,254)"/>
            <path d="M1.17,18.5639994 L11.1540001,18.5639994 C11.7000001,18.5639994 12.1680001,18.0959994 12.1680001,17.5499994 L12.1680001,17.5499994 L12.1680001,11.5439996 C12.1680001,10.9979996 11.7000001,10.5299996 11.1540001,10.5299996 L11.1540001,10.5299996 L1.17,10.5299996 C0.624000009,10.5299996 0.156000037,10.9979996 0.156000037,11.5439996 L0.156000037,11.5439996 L0.156000037,17.5499994 C0.156000002,18.0960006 0.624000009,18.5639994 1.17,18.5639994 L1.17,18.5639994 L1.17,18.5639994 Z M1.17,18.5639994" id="Shape" fill="rgb(254,255,254)"/>
            <path d="M64.8179988,18.5639994 L76.751999,18.5639994 C77.2979989,18.5639994 77.7659989,18.0959994 77.7659989,17.5499994 L77.7659989,17.5499994 L77.7659989,11.5439996 C77.7659989,10.9979996 77.2979989,10.5299996 76.751999,10.5299996 L76.751999,10.5299996 L64.8179988,10.5299996 C64.2719988,10.5299996 63.8039988,10.9979996 63.8039988,11.5439996 L63.8039988,11.5439996 L63.8039988,17.5499994 C63.96,18.0960006 64.35,18.5639994 64.8179988,18.5639994 L64.8179988,18.5639994 L64.8179988,18.5639994 Z M64.8179988,18.5639994" id="Shape" fill="rgb(254,255,254)"/>
            <path d="M11.0759999,8.58 L17.0819997,8.58 C17.6279997,8.58 18.0959997,8.11199998 18.0959997,7.56600004 L18.0959997,7.56600004 L18.0959997,1.56 C18.0959997,1.01400001 17.6279996,0.546000037 17.0819997,0.546000037 L17.0819997,0.546000037 L11.0759999,0.546000037 C10.5299999,0.546000037 10.0619999,1.01400006 10.0619999,1.56 L10.0619999,1.56 L10.0619999,7.56599985 C10.14,8.19 10.53,8.58 11.0759999,8.58 L11.0759999,8.58 L11.0759999,8.58 Z M11.0759999,8.58" id="Shape" fill="rgb(254,255,254)"/>
            <path d="M21.06,8.58 L27.0659999,8.58 C27.6119998,8.58 28.0799998,8.11199998 28.0799998,7.56600004 L28.0799998,7.56600004 L28.0799998,1.56 C28.0799998,1.01400001 27.6119998,0.546000037 27.0659999,0.546000037 L27.0659999,0.546000037 L21.06,0.546000037 C20.514,0.546000037 20.046,1.01400006 20.046,1.56 L20.046,1.56 L20.046,7.56599985 C20.0460006,8.19 20.5139994,8.58 21.06,8.58 L21.06,8.58 L21.06,8.58 Z M21.06,8.58" id="Shape" fill="rgb(254,255,254)"/>
            <path d="M31.0439994,8.58 L37.0499993,8.58 C37.5959992,8.58 38.0639992,8.11199998 38.0639992,7.56600004 L38.0639992,7.56600004 L38.0639992,1.56 C38.0639992,1.01400001 37.5959992,0.546000037 37.0499993,0.546000037 L37.0499993,0.546000037 L31.0439994,0.546000037 C30.4979994,0.546000037 30.0299994,1.01400006 30.0299994,1.56 L30.0299994,1.56 L30.0299994,7.56599985 C30.03,8.19 30.42,8.58 31.0439994,8.58 L31.0439994,8.58 L31.0439994,8.58 Z M31.0439994,8.58" id="Shape" fill="rgb(254,255,254)"/>
            <path d="M40.95,8.58 L46.9559999,8.58 C47.5019998,8.58 47.9699998,8.11199998 47.9699998,7.56600004 L47.9699998,7.56600004 L47.9699998,1.56 C47.9699998,1.01400001 47.5019998,0.546000037 46.9559999,0.546000037 L46.9559999,0.546000037 L40.95,0.546000037 C40.404,0.546000037 39.936,1.01400006 39.936,1.56 L39.936,1.56 L39.936,7.56599985 C40.0139994,8.19 40.4039994,8.58 40.95,8.58 L40.95,8.58 L40.95,8.58 Z M40.95,8.58" id="Shape" fill="rgb(254,255,254)"/>
            <path d="M50.9340024,8.58 L56.94,8.58 C57.486,8.58 57.954,8.11199998 57.954,7.56600004 L57.954,7.56600004 L57.954,1.56 C57.954,1.01400001 57.4859999,0.546000037 56.94,0.546000037 L56.94,0.546000037 L50.9340001,0.546000037 C50.3880002,0.546000037 49.9200002,1.01400006 49.9200002,1.56 L49.9200002,1.56 L49.9200002,7.56599985 C49.92,8.19 50.31,8.58 50.9340024,8.58 L50.9340024,8.58 L50.9340024,8.58 Z M50.9340024,8.58" id="Shape" fill="rgb(254,255,254)"/>
            <path d="M60.84,8.58 L66.8459999,8.58 C67.3919998,8.58 67.8599998,8.11199998 67.8599998,7.56600004 L67.8599998,7.56600004 L67.8599998,1.56 C67.8599998,1.01400001 67.3919998,0.546000037 66.8459999,0.546000037 L66.8459999,0.546000037 L60.84,0.546000037 C60.294,0.546000037 59.826,1.01400006 59.826,1.56 L59.826,1.56 L59.826,7.56599985 C59.9040024,8.19 60.2940024,8.58 60.84,8.58 L60.84,8.58 L60.84,8.58 Z M60.84,8.58" id="Shape" fill="rgb(254,255,254)"/>
            <path d="M70.8240024,8.58 L76.8300022,8.58 C77.3760022,8.58 77.8440022,8.11199998 77.8440022,7.56600004 L77.8440022,7.56600004 L77.8440022,1.56 C77.8440022,1.01400001 77.3760022,0.546000037 76.8300022,0.546000037 L76.8300022,0.546000037 L70.8240024,0.546000037 C70.2780024,0.546000037 69.8100024,1.01400006 69.8100024,1.56 L69.8100024,1.56 L69.8100024,7.56599985 C69.81,8.19 70.2779988,8.58 70.8240024,8.58 L70.8240024,8.58 L70.8240024,8.58 Z M70.8240024,8.58" id="Shape" fill="rgb(254,255,254)"/>
            <path d="M15.0539994,18.5639994 L21.06,18.5639994 C21.606,18.5639994 22.074,18.0959994 22.074,17.5499994 L22.074,17.5499994 L22.074,11.5439996 C22.074,10.9979996 21.6059999,10.5299996 21.06,10.5299996 L21.06,10.5299996 L15.0540001,10.5299996 C14.5080002,10.5299996 14.0400002,10.9979996 14.0400002,11.5439996 L14.0400002,11.5439996 L14.0400002,17.5499994 C14.04,18.0960006 14.43,18.5639994 15.0539994,18.5639994 L15.0539994,18.5639994 L15.0539994,18.5639994 Z M15.0539994,18.5639994" id="Shape" fill="rgb(254,255,254)"/>
            <path d="M24.96,18.5639994 L30.9659999,18.5639994 C31.5119998,18.5639994 31.9799998,18.0959994 31.9799998,17.5499994 L31.9799998,17.5499994 L31.9799998,11.5439996 C31.9799998,10.9979996 31.5119998,10.5299996 30.9659999,10.5299996 L30.9659999,10.5299996 L24.96,10.5299996 C24.414,10.5299996 23.946,10.9979996 23.946,11.5439996 L23.946,11.5439996 L23.946,17.5499994 C24.0239994,18.0960006 24.4139994,18.5639994 24.96,18.5639994 L24.96,18.5639994 L24.96,18.5639994 Z M24.96,18.5639994" id="Shape" fill="rgb(254,255,254)"/>
            <path d="M34.9439994,18.5639994 L40.9499993,18.5639994 C41.4959992,18.5639994 41.9639992,18.0959994 41.9639992,17.5499994 L41.9639992,17.5499994 L41.9639992,11.5439996 C41.9639992,10.9979996 41.4959992,10.5299996 40.9499993,10.5299996 L40.9499993,10.5299996 L34.9439994,10.5299996 C34.3979994,10.5299996 33.9299994,10.9979996 33.9299994,11.5439996 L33.9299994,11.5439996 L33.9299994,17.5499994 C33.93,18.0960006 34.4760006,18.5639994 34.9439994,18.5639994 L34.9439994,18.5639994 L34.9439994,18.5639994 Z M34.9439994,18.5639994" id="Shape" fill="rgb(254,255,254)"/>
            <path d="M44.9279988,18.5639994 L50.9339987,18.5639994 C51.4799987,18.5639994 51.9479986,18.0959994 51.9479986,17.5499994 L51.9479986,17.5499994 L51.9479986,11.5439996 C51.9479986,10.9979996 51.4799986,10.5299996 50.9339987,10.5299996 L50.9339987,10.5299996 L44.9279988,10.5299996 C44.3819988,10.5299996 43.9139988,10.9979996 43.9139988,11.5439996 L43.9139988,11.5439996 L43.9139988,17.5499994 C43.9139994,18.0960006 44.46,18.5639994 44.9279988,18.5639994 L44.9279988,18.5639994 L44.9279988,18.5639994 Z M44.9279988,18.5639994" id="Shape" fill="rgb(254,255,254)"/>
            <path d="M54.8340024,18.5639994 L60.84,18.5639994 C61.386,18.5639994 61.854,18.0959994 61.854,17.5499994 L61.854,17.5499994 L61.854,11.5439996 C61.854,10.9979996 61.3859999,10.5299996 60.84,10.5299996 L60.84,10.5299996 L54.8340001,10.5299996 C54.2880002,10.5299996 53.8200002,10.9979996 53.8200002,11.5439996 L53.8200002,11.5439996 L53.8200002,17.5499994 C53.8979988,18.0960006 54.2879988,18.5639994 54.8340024,18.5639994 L54.8340024,18.5639994 L54.8340024,18.5639994 Z M54.8340024,18.5639994" id="Shape" fill="rgb(254,255,254)"/>
            <path d="M1.17,28.5479988 L7.17599985,28.5479988 C7.72199984,28.5479988 8.18999981,28.0799988 8.18999981,27.5339988 L8.18999981,27.5339988 L8.18999981,21.527999 C8.18999981,20.981999 7.7219998,20.513999 7.17599985,20.513999 L7.17599985,20.513999 L1.17,20.513999 C0.624000009,20.513999 0.156000037,20.9819991 0.156000037,21.527999 L0.156000037,21.527999 L0.156000037,27.5339988 C0.156000002,28.08 0.624000009,28.5479988 1.17,28.5479988 L1.17,28.5479988 L1.17,28.5479988 Z M1.17,28.5479988" id="Shape" fill="rgb(254,255,254)"/>
            <path d="M11.0759999,28.5479988 L17.0819997,28.5479988 C17.6279997,28.5479988 18.0959997,28.0799988 18.0959997,27.5339988 L18.0959997,27.5339988 L18.0959997,21.527999 C18.0959997,20.981999 17.6279996,20.513999 17.0819997,20.513999 L17.0819997,20.513999 L11.0759999,20.513999 C10.5299999,20.513999 10.0619999,20.9819991 10.0619999,21.527999 L10.0619999,21.527999 L10.0619999,27.5339988 C10.14,28.08 10.53,28.5479988 11.0759999,28.5479988 L11.0759999,28.5479988 L11.0759999,28.5479988 Z M11.0759999,28.5479988" id="Shape" fill="rgb(254,255,254)"/>
            <path d="M21.06,28.5479988 L27.0659999,28.5479988 C27.6119998,28.5479988 28.0799998,28.0799988 28.0799998,27.5339988 L28.0799998,27.5339988 L28.0799998,21.527999 C28.0799998,20.981999 27.6119998,20.513999 27.0659999,20.513999 L27.0659999,20.513999 L21.06,20.513999 C20.514,20.513999 20.046,20.9819991 20.046,21.527999 L20.046,21.527999 L20.046,27.5339988 C20.0460006,28.08 20.5139994,28.5479988 21.06,28.5479988 L21.06,28.5479988 L21.06,28.5479988 Z M21.06,28.5479988" id="Shape" fill="rgb(254,255,254)"/>
            <path d="M31.0439994,28.5479988 L37.0499993,28.5479988 C37.5959992,28.5479988 38.0639992,28.0799988 38.0639992,27.5339988 L38.0639992,27.5339988 L38.0639992,21.527999 C38.0639992,20.981999 37.5959992,20.513999 37.0499993,20.513999 L37.0499993,20.513999 L31.0439994,20.513999 C30.4979994,20.513999 30.0299994,20.9819991 30.0299994,21.527999 L30.0299994,21.527999 L30.0299994,27.5339988 C30.03,28.08 30.42,28.5479988 31.0439994,28.5479988 L31.0439994,28.5479988 L31.0439994,28.5479988 Z M31.0439994,28.5479988" id="Shape" fill="rgb(254,255,254)"/>
            <path d="M40.95,28.5479988 L46.9559999,28.5479988 C47.5019998,28.5479988 47.9699998,28.0799988 47.9699998,27.5339988 L47.9699998,27.5339988 L47.9699998,21.527999 C47.9699998,20.981999 47.5019998,20.513999 46.9559999,20.513999 L46.9559999,20.513999 L40.95,20.513999 C40.404,20.513999 39.936,20.9819991 39.936,21.527999 L39.936,21.527999 L39.936,27.5339988 C40.0139994,28.08 40.4039994,28.5479988 40.95,28.5479988 L40.95,28.5479988 L40.95,28.5479988 Z M40.95,28.5479988" id="Shape" fill="rgb(254,255,254)"/>
            <path d="M50.9340024,28.5479988 L56.94,28.5479988 C57.486,28.5479988 57.954,28.0799988 57.954,27.5339988 L57.954,27.5339988 L57.954,21.527999 C57.954,20.981999 57.4859999,20.513999 56.94,20.513999 L56.94,20.513999 L50.9340001,20.513999 C50.3880002,20.513999 49.9200002,20.9819991 49.9200002,21.527999 L49.9200002,21.527999 L49.9200002,27.5339988 C49.92,28.08 50.31,28.5479988 50.9340024,28.5479988 L50.9340024,28.5479988 L50.9340024,28.5479988 Z M50.9340024,28.5479988" id="Shape" fill="rgb(254,255,254)"/>
            <path d="M60.84,28.5479988 L66.8459999,28.5479988 C67.3919998,28.5479988 67.8599998,28.0799988 67.8599998,27.5339988 L67.8599998,27.5339988 L67.8599998,21.527999 C67.8599998,20.981999 67.3919998,20.513999 66.8459999,20.513999 L66.8459999,20.513999 L60.84,20.513999 C60.294,20.513999 59.826,20.9819991 59.826,21.527999 L59.826,21.527999 L59.826,27.5339988 C59.9040024,28.08 60.2940024,28.5479988 60.84,28.5479988 L60.84,28.5479988 L60.84,28.5479988 Z M60.84,28.5479988" id="Shape" fill="rgb(254,255,254)"/>
            <path d="M70.8240024,28.5479988 L76.8300022,28.5479988 C77.3760022,28.5479988 77.8440022,28.0799988 77.8440022,27.5339988 L77.8440022,27.5339988 L77.8440022,21.527999 C77.8440022,20.981999 77.3760022,20.513999 76.8300022,20.513999 L76.8300022,20.513999 L70.8240024,20.513999 C70.2780024,20.513999 69.8100024,20.9819991 69.8100024,21.527999 L69.8100024,21.527999 L69.8100024,27.5339988 C69.81,28.08 70.2779988,28.5479988 70.8240024,28.5479988 L70.8240024,28.5479988 L70.8240024,28.5479988 Z M70.8240024,28.5479988" id="Shape" fill="rgb(254,255,254)"/>
        </g>
    </g>
</svg>
<svg  xmlns:sketch="http://www.bohemiancoding.com/sketch/ns" width="31px" height="48px" viewBox="0 0 31 48" version="1.1" class="i" id="mic">
    <title>Slice 1</title>
    <description>Created with Sketch (http://www.bohemiancoding.com/sketch)</description>
    <defs/>
    <g id="Page 1" fill="rgb(206,206,206)" fill-rule="evenodd">
        <g id="microphone" fill="rgb(0,0,0)">
            <path d="M15.3455251,31.835047 C19.884135,31.835047 23.5647283,28.2800496 23.5647283,23.8934203 L23.5647283,7.94162668 C23.5642032,3.55652059 19.8836094,0 15.3455251,0 C10.8058639,0 7.12684702,3.55652059 7.12684702,7.94162668 L7.12684702,23.8934212 C7.12632189,28.2800501 10.8053393,31.835047 15.3455251,31.835047 L15.3455251,31.835047 Z M15.3455251,31.835047" id="Shape" fill="rgb(254,255,254)"/>
            <path d="M27.3955929,20.6648819 L27.3955929,23.9040827 C27.3955929,30.3256203 21.9905592,35.5484505 15.345,35.5484505 C8.69944076,35.5484505 3.29440702,30.3256203 3.29440702,23.9040827 L3.29440702,20.6648819 L0,20.6648819 L0,23.9040827 C0,31.5426054 6.00822056,37.8483849 13.6977964,38.6454921 L13.6977964,44.5410407 L4.63476276,44.5410407 L4.63476276,47.7249008 L26.0562884,47.7249008 L26.0562884,44.5410407 L16.9927286,44.5410407 L16.9927286,38.6454907 C24.682305,37.848891 30.6905251,31.5431114 30.6905251,23.9040812 L30.6905251,20.6648804 L27.3955929,20.6648804 L27.3955929,20.6648819 Z M27.3955929,20.6648819" id="Shape" fill="rgb(254,255,254)"/>
        </g>
    </g>
</svg>
<svg  xmlns:sketch="http://www.bohemiancoding.com/sketch/ns" width="24px" height="64px" viewBox="0 0 24 64" version="1.1" class="i" id="mouse">
    <title>Slice 1</title>
    <description>Created with Sketch (http://www.bohemiancoding.com/sketch)</description>
    <defs/>
    <g id="Page 1" fill="rgb(206,206,206)" fill-rule="evenodd">
        <g id="mouse" fill="rgb(255,255,255)">
            <path d="M11.96291,63.7932887 C16.5665464,63.7932887 23.485819,61.7357255 23.485819,49.6007375 C23.485819,46.9156799 23.4210918,42.8020251 23.0160008,38.8148986 C23.0043645,38.7082319 15.8829102,38.0807377 11.8240009,38.0807377 L12.0974554,38.0807377 C8.03854643,38.0807377 0.917091673,38.7089675 0.906183026,38.8148986 C0.500364824,42.8020251 0.436364824,46.9156803 0.436364824,49.6007375 C0.436364824,61.7357262 7.35418307,63.7932887 11.9585469,63.7932887" id="Shape" fill="rgb(254,255,254)"/>
            <path d="M10.9061806,36.0834933 C6.99418051,36.0606887 3.95563507,36.2828496 0.989816839,36.6822979 C1.37672593,33.8971944 1.95854412,31.379861 2.84072599,29.7658838 C4.44799874,26.8321827 8.0683625,26.7505275 10.9112715,26.8174701 L10.9061806,36.0834933 L10.9061806,36.0834933 Z M10.9061806,36.0834933" id="Shape" fill="rgb(254,255,254)"/>
            <path d="M12.9934554,36.0393572 C16.9054555,36.0194951 19.9447278,36.2394491 22.9090916,36.6388974 C22.5229098,33.8530583 21.9418188,31.3364605 21.0589098,29.7224833 C19.4516371,26.7887822 15.8312733,26.707127 12.9883643,26.7740696 L12.9934554,36.0393572 L12.9934554,36.0393572 Z M12.9934554,36.0393572" id="Shape" fill="rgb(254,255,254)"/>
            <path d="M0.266182639,49.6007375 C0.266182639,61.7357262 7.18545532,63.7932887 11.7890916,63.7932887" id="Shape"/>
            <path d="M12.9883645,26.7895171 L10.9112736,26.8174711 L10.9120009,26.0869884 C10.9083645,24.921747 10.9047282,23.7175172 11.09091,22.5074021 C11.4116373,20.4108504 12.3629099,18.5048274 13.9178191,16.8430344 C14.4465464,16.2765976 15.0145464,15.8146206 15.5643645,15.3680918 C15.9054555,15.0929653 16.2232736,14.8325515 16.5301827,14.5537469 C17.2276372,13.9188964 17.7687281,13.3789423 17.8770918,12.6903906 C18.0814554,11.359632 17.5360009,10.2120458 16.253819,9.28073529 C15.8225462,8.96956287 15.3163644,8.71062036 14.7796372,8.43770078 C13.4385463,7.75356285 11.9192735,6.97820656 11.2269097,5.12662038 C10.6043646,3.47291933 10.9883645,1.46096556 12.2014549,0 L13.7585458,1.32266665 C13.023273,2.20910346 12.7687276,3.44422992 13.124364,4.3961379 C13.5381822,5.49958617 14.5352731,6.00937933 15.6923639,6.60009196 C16.2756366,6.89728737 16.8778185,7.20478163 17.4349093,7.6093793 C19.3389093,8.99016089 20.2087274,10.9086897 19.8836366,13.0081841 C19.6574548,14.4735634 18.6356367,15.4034025 17.8909094,16.0831265 C17.5425457,16.4016552 17.1825457,16.6922299 16.8385457,16.9725058 C16.3200003,17.3947586 15.8283639,17.7934713 15.3956366,18.2569196 C14.1330912,19.6104828 13.3600003,21.1472184 13.1047275,22.8244599 C12.9403639,23.8742071 12.9883639,24.9533795 12.9927275,26.0877242 L12.9927275,26.7895173 L12.9883645,26.7895173 L12.9883645,26.7895171 Z M12.9883645,26.7895171" id="Shape" fill="rgb(254,255,254)"/>
        </g>
    </g>
</svg>
<svg  xmlns:sketch="http://www.bohemiancoding.com/sketch/ns" width="12px" height="10px" viewBox="0 0 12 10" version="1.1" class="i" id="quote">
    <title>quot</title>
    <description>Created with Sketch (http://www.bohemiancoding.com/sketch)</description>
    <defs/>
    <g id="Page 1" fill="rgb(206,206,206)" fill-rule="evenodd">
        <path d="M5.06350915,10 L8.4219591,5.04928806 L5.06350915,0 L7.9181916,0 L12,5.04928806 L7.9181916,10 Z M0,10 L3.35844995,5.04928806 L0,0 L2.85468245,0 L6.93649085,5.04928806 L2.85468245,10 Z M0,10" id="»" fill="rgb(0,145,255)"/>
    </g>
</svg>
<svg  xmlns:sketch="http://www.bohemiancoding.com/sketch/ns" width="26px" height="21px" viewBox="0 0 26 21" version="1.1" class="i" id="twitter">
    <title>Slice 1</title>
    <description>Created with Sketch (http://www.bohemiancoding.com/sketch)</description>
    <defs/>
    <g id="Page 1" fill="rgb(206,206,206)" fill-rule="evenodd">
        <g id="Layer_1" fill="rgb(0,0,0)">
            <path d="M22.9364204,3.81041224 C24.0376502,3.17468578 24.8835601,2.16801453 25.2817502,0.968422035 C24.2509803,1.55720138 23.1094506,1.98460781 21.8943407,2.21496164 C20.9214208,1.21655314 19.535101,0.592845165 18.0008412,0.592845165 C15.0550416,0.592845165 12.6665518,2.89275276 12.6665518,5.72960979 C12.6665518,6.13222821 12.7137418,6.52433046 12.8046118,6.90028288 C8.37135228,6.68607887 4.44093318,4.64093751 1.80999369,1.53303881 C1.35083374,2.29170408 1.08771376,3.17405933 1.08771376,4.1155054 C1.08771376,5.89774285 2.02943362,7.47003282 3.46073338,8.39119767 C2.58635353,8.36453171 1.76384357,8.13342674 1.04468384,7.74871084 C1.04416384,7.77011872 1.04416384,7.79165179 1.04416384,7.81331006 C1.04416384,10.3021327 2.88288359,12.3783218 5.32311336,12.8502968 C4.87552341,12.9677272 4.40427351,13.0304485 3.9178135,13.0304485 C3.57409354,13.0304485 3.23999357,12.9981489 2.91421367,12.938307 C3.59307359,14.9790666 5.5629633,16.4643479 7.89724313,16.5056614 C6.07165336,17.8835277 3.77169364,18.704664 1.27244419,18.704664 C0.841884246,18.704664 0.417304302,18.6803767 4.35585576e-06,18.6328037 C2.36067407,20.0904174 5.16451378,20.9409739 8.17687297,20.9409739 C17.9883615,20.9409739 23.3538511,13.1134514 23.3538511,6.32514945 C23.3538511,6.10243236 23.3486511,5.8809672 23.3383811,5.66050358 C24.3805901,4.93639193 25.2848692,4.03162757 26,3.00154485 C25.0434602,3.41017248 24.0152903,3.68622147 22.9364204,3.81041224 Z M22.9364204,3.81041224" id="Shape" fill="rgb(254,255,254)"/>
        </g>
    </g>
</svg>
</svg>